<svg xmlns="http://www.w3.org/2000/svg" width="41.935" height="40.887" viewBox="0 0 41.935 40.887">
  <path id="Icon_awesome-github" data-name="Icon awesome-github" d="M14.026,33.485c0,.169-.194.3-.44.3-.279.025-.473-.11-.473-.3,0-.169.194-.3.44-.3C13.806,33.155,14.026,33.29,14.026,33.485ZM11.4,33.1c-.059.169.11.364.364.414a.4.4,0,0,0,.524-.169c.051-.169-.11-.364-.364-.44A.434.434,0,0,0,11.4,33.1Zm3.737-.144c-.245.059-.414.22-.389.414.025.169.245.279.5.22s.414-.22.389-.389S15.379,32.935,15.134,32.96ZM20.7.563A20.273,20.273,0,0,0,0,21.192,21.2,21.2,0,0,0,14.331,41.415c1.082.194,1.463-.473,1.463-1.023,0-.524-.025-3.416-.025-5.191,0,0-5.918,1.268-7.161-2.519,0,0-.964-2.46-2.35-3.094,0,0-1.936-1.327.135-1.3a4.463,4.463,0,0,1,3.263,2.181c1.852,3.263,4.954,2.325,6.163,1.767a4.7,4.7,0,0,1,1.353-2.849c-4.726-.524-9.494-1.209-9.494-9.342a6.408,6.408,0,0,1,2-4.98,7.988,7.988,0,0,1,.22-5.741c1.767-.55,5.834,2.283,5.834,2.283a19.973,19.973,0,0,1,10.619,0s4.067-2.841,5.834-2.283a7.984,7.984,0,0,1,.22,5.741,6.572,6.572,0,0,1,2.181,4.98c0,8.159-4.98,8.81-9.706,9.342a5,5,0,0,1,1.437,3.923c0,2.849-.025,6.375-.025,7.068,0,.55.389,1.217,1.463,1.023A21,21,0,0,0,41.935,21.192C41.935,9.465,32.423.563,20.7.563ZM8.218,29.722c-.11.085-.085.279.059.44.135.135.33.194.44.085.11-.085.085-.279-.059-.44C8.522,29.672,8.328,29.612,8.218,29.722ZM7.3,29.038c-.059.11.025.245.194.33a.252.252,0,0,0,.364-.059c.059-.11-.025-.245-.194-.33C7.5,28.928,7.364,28.953,7.3,29.038Zm2.739,3.01c-.135.11-.085.364.11.524.194.194.44.22.55.085.11-.11.059-.364-.11-.524C10.408,31.937,10.154,31.912,10.044,32.047ZM9.08,30.8c-.135.085-.135.3,0,.5s.364.279.473.194a.386.386,0,0,0,0-.524C9.435,30.779,9.215,30.695,9.08,30.8Z" transform="translate(0 -0.563)" fill="#fff"/>
</svg>
