<svg width="35" height="35" viewBox="0 0 35 35" fill="none" xmlns="http://www.w3.org/2000/svg">
<path fill-rule="evenodd" clip-rule="evenodd" d="M15.5716 3.40247C15.9799 2.7321 16.7078 2.32297 17.4928 2.32297C18.2775 2.32297 19.0057 2.7321 19.4138 3.40247C19.9307 4.25097 20.4637 5.12643 20.8893 5.82539C21.3984 6.66155 22.3902 7.07233 23.3416 6.84112C24.1368 6.64776 25.1326 6.40587 26.0982 6.17116C26.8607 5.98583 27.665 6.21127 28.2199 6.76625C28.7749 7.32122 29.0003 8.12529 28.815 8.88802C28.5803 9.85336 28.3384 10.8494 28.145 11.6446C27.9138 12.5959 28.3246 13.5876 29.1608 14.0969C29.8597 14.5225 30.7352 15.0555 31.5837 15.5722C32.2541 15.9805 32.6632 16.7087 32.6632 17.4934C32.6632 18.2783 32.2541 19.0063 31.5837 19.4146C30.7352 19.9313 29.8597 20.4643 29.1608 20.8899C28.3246 21.3992 27.9138 22.3909 28.145 23.3424C28.3384 24.1376 28.5803 25.1334 28.815 26.0988C29.0003 26.8615 28.7749 27.6656 28.2199 28.2205C27.665 28.7755 26.8607 29.0012 26.0982 28.8158C25.1326 28.5811 24.1368 28.339 23.3416 28.1457C22.3902 27.9145 21.3984 28.3252 20.8893 29.1616C20.4637 29.8606 19.9307 30.7358 19.4138 31.5845C19.0057 32.2547 18.2775 32.6638 17.4928 32.6638C16.7078 32.6638 15.9799 32.2547 15.5716 31.5845C15.0549 30.7358 14.5219 29.8606 14.0963 29.1616C13.587 28.3252 12.5953 27.9145 11.6438 28.1457C10.8485 28.339 9.85275 28.5811 8.88741 28.8158C8.12468 29.0012 7.32061 28.7755 6.76564 28.2205C6.21067 27.6656 5.98501 26.8615 6.17035 26.0988C6.40505 25.1334 6.64715 24.1376 6.84051 23.3424C7.07171 22.3909 6.66094 21.3992 5.82457 20.8899C5.12561 20.4643 4.25037 19.9313 3.40166 19.4146C2.73129 19.0063 2.32236 18.2783 2.32236 17.4934C2.32236 16.7087 2.73129 15.9805 3.40166 15.5722C4.25037 15.0555 5.12561 14.5225 5.82457 14.0969C6.66094 13.5876 7.07171 12.5959 6.84051 11.6446C6.64715 10.8494 6.40505 9.85336 6.17035 8.88802C5.98501 8.12529 6.21067 7.32122 6.76564 6.76625C7.32061 6.21127 8.12468 5.98583 8.88741 6.17116C9.85275 6.40587 10.8485 6.64776 11.6438 6.84112C12.5953 7.07233 13.587 6.66155 14.0963 5.82539C14.5219 5.12643 15.0549 4.25097 15.5716 3.40247Z" fill="#FFD301"/>
</svg>
