<svg width="22" height="22" viewBox="0 0 22 22" fill="none" xmlns="http://www.w3.org/2000/svg">
<g clip-path="url(#clip0_1_39)">
<path fill-rule="evenodd" clip-rule="evenodd" d="M10.9431 0.00143051C4.90348 0.00143051 0 4.90491 0 10.9442C0 16.9838 4.90348 21.8873 10.9431 21.8873C16.9827 21.8873 21.8862 16.9838 21.8862 10.9442C21.8862 4.90491 16.9827 0.00143051 10.9431 0.00143051ZM10.9431 1.29916C16.2664 1.29916 20.5882 5.6209 20.5882 10.9442C20.5882 16.2675 16.2664 20.5896 10.9431 20.5896C5.61978 20.5896 1.29805 16.2675 1.29805 10.9442C1.29805 5.6209 5.61978 1.29916 10.9431 1.29916Z" fill="#1C211A"/>
<path d="M10.8271 13.2624C12.1073 13.2624 13.1452 12.2246 13.1452 10.9443C13.1452 9.66407 12.1073 8.62622 10.8271 8.62622C9.54682 8.62622 8.50897 9.66407 8.50897 10.9443C8.50897 12.2246 9.54682 13.2624 10.8271 13.2624Z" fill="#1C211A"/>
<path fill-rule="evenodd" clip-rule="evenodd" d="M1.83774 11.9431H7.8746C8.2707 13.2552 9.48962 14.2113 10.9302 14.2113C12.3704 14.2113 13.5893 13.2552 13.9858 11.9431H20.0485C19.5497 16.5292 15.6604 20.1033 10.9429 20.1033C6.22577 20.1033 2.33653 16.5292 1.83774 11.9431ZM1.83295 9.99132C2.30973 5.38355 6.2095 1.78485 10.9429 1.78485C15.6767 1.78485 19.5764 5.38355 20.0532 9.99132H13.952C13.5233 8.73414 12.3315 7.82872 10.9302 7.82872C9.52853 7.82872 8.3367 8.73414 7.90839 9.99132H1.83295Z" fill="#1C211A"/>
</g>
<defs>
<clipPath id="clip0_1_39">
<rect width="22" height="22" fill="white"/>
</clipPath>
</defs>
</svg>
